<svg width="16" height="20" viewBox="0 0 16 20" fill="none" xmlns="http://www.w3.org/2000/svg">
<path d="M7.52915 19.6411C7.66172 19.7646 7.83086 19.8286 8 19.8286C8.16915 19.8286 8.33829 19.7646 8.47086 19.6411C8.77715 19.3486 16 12.4549 16 8.17143C16 3.76 12.4114 0.171432 8 0.171432C3.58858 0.171432 7.62939e-06 3.76 7.62939e-06 8.17143C7.62939e-06 12.4549 7.22286 19.3486 7.52915 19.6411ZM8 1.54286C11.6571 1.54286 14.6286 4.51429 14.6286 8.17143C14.6286 11.0194 10.2126 15.9886 8 18.1874C5.78743 15.9886 1.37144 11.024 1.37144 8.17143C1.37144 4.51429 4.34286 1.54286 8 1.54286Z" fill="white"/>
<path d="M11.4286 8.17143C11.4286 6.27886 9.89257 4.74286 8 4.74286C6.10743 4.74286 4.57143 6.27886 4.57143 8.17143C4.57143 10.064 6.10743 11.6 8 11.6C9.89257 11.6 11.4286 10.064 11.4286 8.17143ZM5.94286 8.17143C5.94286 7.03771 6.86629 6.11429 8 6.11429C9.13372 6.11429 10.0571 7.03771 10.0571 8.17143C10.0571 9.30514 9.13372 10.2286 8 10.2286C6.86629 10.2286 5.94286 9.30514 5.94286 8.17143Z" fill="white"/>
</svg>
